<?xml version="1.0" encoding="UTF-8"?>
<svg id="Capa_1" xmlns="http://www.w3.org/2000/svg" version="1.1" viewBox="0 0 993.4 486.1">
  <defs>
    <style>
      .st0 {
        fill: #776b5d;
      }
    </style>
  </defs>
  <g>
    <g>
      <rect class="st0" x="126.4" y="215.6" width="205.2" height="48.1"/>
      <path class="st0" d="M126.4,339.6v33.7c0,9.4,7.6,17,17,17h171.2c9.4,0,17-7.6,17-17v-33.7H126.4Z"/>
      <rect class="st0" x="126.4" y="277.6" width="205.2" height="48.1"/>
    </g>
    <g>
      <g>
        <path class="st0" d="M150.3,148.8c0-20.4,7.8-39,20.5-52.9h-27.4c-9.4,0-17,7.6-17,17v72c0,9.4,7.6,17,17,17h27.4c-12.7-14-20.5-32.6-20.5-52.9h0Z"/>
        <path class="st0" d="M287.2,95.8c12.7,14,20.5,32.6,20.5,52.9s-7.8,39-20.5,52.9h27.4c9.4,0,17-7.6,17-17v-72c0-9.4-7.6-17-17-17h-27.4Z"/>
      </g>
      <path class="st0" d="M269.2,95.8h-80.3c-16,12.2-26.3,31.4-26.3,52.9s10.3,40.8,26.3,52.9h80.3c16-12.2,26.3-31.4,26.3-52.9s-10.3-40.8-26.3-52.9ZM229,182.6c-18.7,0-33.8-15.1-33.8-33.8s15.1-33.8,33.8-33.8,33.8,15.1,33.8,33.8-15.1,33.8-33.8,33.8h0Z"/>
    </g>
  </g>
  <g>
    <g>
      <path class="st0" d="M405.1,336c.9-1.6,2.2-2.8,3.8-3.7,1.6-.9,3.3-1.3,5.2-1.3s4.1.5,5.8,1.6c1.7,1.1,2.9,2.6,3.7,4.5h-4c-.5-1.1-1.3-1.9-2.2-2.4s-2-.8-3.2-.8-2.5.3-3.6.9c-1,.6-1.9,1.5-2.5,2.6-.6,1.1-.9,2.5-.9,4s.3,2.8.9,4c.6,1.1,1.4,2,2.5,2.6s2.2.9,3.6.9,2.3-.3,3.2-.8c.9-.5,1.7-1.3,2.2-2.4h4c-.8,2-2,3.5-3.7,4.5-1.7,1-3.6,1.6-5.8,1.6s-3.7-.4-5.2-1.3-2.8-2.1-3.8-3.7c-.9-1.6-1.4-3.4-1.4-5.4s.5-3.8,1.4-5.4h0Z"/>
      <path class="st0" d="M441,333.9v6h7v2.7h-7v6.2h7.9v2.7h-11.2v-20.4h11.2v2.7h-7.9Z"/>
      <path class="st0" d="M480,351.5h-3.3l-10-15.2v15.2h-3.3v-20.4h3.3l10,15.2v-15.2h3.3v20.4Z"/>
      <path class="st0" d="M507.8,331.2v2.7h-5.4v17.6h-3.3v-17.6h-5.5v-2.7h14.2Z"/>
      <path class="st0" d="M532,351.5l-4.7-8.1h-2.5v8.1h-3.3v-20.4h7c1.6,0,2.9.3,4,.8,1.1.5,1.9,1.3,2.4,2.2s.8,1.9.8,3.1-.4,2.5-1.2,3.6c-.8,1.1-2,1.8-3.6,2.2l5,8.4h-4,0ZM524.7,340.7h3.7c1.2,0,2.2-.3,2.8-.9.6-.6,1-1.5,1-2.5s-.3-1.9-.9-2.5c-.6-.6-1.6-.9-2.8-.9h-3.7v6.8h0Z"/>
      <path class="st0" d="M554.2,350.4c-1.6-.9-2.8-2.1-3.8-3.7-.9-1.6-1.4-3.4-1.4-5.4s.5-3.8,1.4-5.4c.9-1.6,2.2-2.8,3.8-3.7,1.6-.9,3.3-1.3,5.2-1.3s3.7.4,5.2,1.3c1.6.9,2.8,2.1,3.8,3.7s1.4,3.4,1.4,5.4-.5,3.8-1.4,5.4c-.9,1.6-2.2,2.8-3.8,3.7-1.6.9-3.3,1.3-5.2,1.3s-3.6-.4-5.2-1.3ZM563,347.9c1-.6,1.9-1.5,2.5-2.6.6-1.1.9-2.5.9-4s-.3-2.8-.9-4-1.4-2-2.5-2.6-2.2-.9-3.6-.9-2.5.3-3.6.9-1.9,1.5-2.5,2.6c-.6,1.1-.9,2.5-.9,4s.3,2.8.9,4c.6,1.1,1.4,2,2.5,2.6s2.2.9,3.6.9,2.5-.3,3.6-.9Z"/>
      <path class="st0" d="M613.5,332.4c1.6.8,2.9,2,3.8,3.6s1.3,3.4,1.3,5.4-.4,3.9-1.3,5.4c-.9,1.5-2.2,2.7-3.8,3.5s-3.5,1.2-5.7,1.2h-6.7v-20.4h6.7c2.2,0,4.1.4,5.7,1.2h0ZM613.3,346.9c1.3-1.3,1.9-3.1,1.9-5.4s-.6-4.2-1.9-5.5c-1.3-1.3-3.1-2-5.5-2h-3.3v14.9h3.3c2.4,0,4.2-.6,5.5-1.9h0Z"/>
      <path class="st0" d="M635.5,333.9v6h7v2.7h-7v6.2h7.9v2.7h-11.2v-20.4h11.2v2.7h-7.9Z"/>
      <path class="st0" d="M697.1,331.2v20.4h-3.3v-13.9l-6.2,13.9h-2.3l-6.2-13.9v13.9h-3.3v-20.4h3.6l7.1,15.9,7.1-16h3.6Z"/>
      <path class="st0" d="M724,347.4h-8.5l-1.5,4.2h-3.5l7.3-20.4h3.9l7.3,20.4h-3.5l-1.5-4.2h0ZM723,344.7l-3.3-9.5-3.3,9.5h6.7Z"/>
      <path class="st0" d="M745.4,351c-1.1-.5-2-1.2-2.6-2-.6-.9-.9-1.9-.9-3.1h3.6c0,.9.4,1.6,1,2.2.6.6,1.5.8,2.6.8s2-.3,2.7-.8c.6-.6,1-1.3,1-2.2s-.2-1.2-.6-1.7c-.4-.4-.9-.8-1.5-1s-1.4-.5-2.5-.8c-1.3-.3-2.4-.7-3.2-1.1-.8-.4-1.5-.9-2.1-1.7-.6-.8-.9-1.8-.9-3s.3-2.2.9-3.1c.6-.9,1.4-1.5,2.5-2,1-.5,2.3-.7,3.7-.7,2,0,3.6.5,4.8,1.5,1.3,1,2,2.3,2.1,4h-3.7c0-.7-.4-1.4-1-1.9-.6-.5-1.5-.8-2.5-.8s-1.7.2-2.3.7c-.6.5-.9,1.2-.9,2.1s.2,1.1.6,1.5c.4.4.9.7,1.5,1,.6.2,1.4.5,2.4.8,1.3.4,2.4.7,3.3,1.1s1.6.9,2.2,1.7c.6.8.9,1.8.9,3.1s-.3,2-.8,2.9c-.6.9-1.4,1.7-2.4,2.2s-2.3.8-3.8.8-2.6-.2-3.7-.7h0Z"/>
      <path class="st0" d="M782.6,347.4h-8.5l-1.5,4.2h-3.5l7.3-20.4h3.9l7.3,20.4h-3.5l-1.5-4.2h0ZM781.6,344.7l-3.3-9.5-3.3,9.5h6.7Z"/>
      <path class="st0" d="M812,331.2v14.7c0,1.8-.5,3.2-1.7,4.3-1.1,1-2.5,1.6-4.3,1.6s-3.2-.5-4.3-1.6-1.7-2.5-1.7-4.3h3.4c0,.9.2,1.6.7,2.1s1.1.8,2,.8,1.5-.3,2-.8c.5-.5.7-1.2.7-2.1v-14.7h3.4,0Z"/>
      <path class="st0" d="M831,333.9v6h7v2.7h-7v6.2h7.9v2.7h-11.2v-20.4h11.2v2.7h-7.9Z"/>
      <path class="st0" d="M856.3,351c-1.1-.5-2-1.2-2.6-2-.6-.9-.9-1.9-.9-3.1h3.6c0,.9.4,1.6,1,2.2.6.6,1.5.8,2.6.8s2-.3,2.7-.8c.6-.6,1-1.3,1-2.2s-.2-1.2-.6-1.7c-.4-.4-.9-.8-1.5-1s-1.4-.5-2.5-.8c-1.3-.3-2.4-.7-3.2-1.1-.8-.4-1.5-.9-2.1-1.7-.6-.8-.9-1.8-.9-3s.3-2.2.9-3.1c.6-.9,1.4-1.5,2.5-2,1-.5,2.3-.7,3.7-.7,2,0,3.6.5,4.8,1.5,1.3,1,2,2.3,2.1,4h-3.7c0-.7-.4-1.4-1-1.9-.6-.5-1.5-.8-2.5-.8s-1.7.2-2.3.7c-.6.5-.9,1.2-.9,2.1s.2,1.1.6,1.5c.4.4.9.7,1.5,1s1.4.5,2.4.8c1.3.4,2.4.7,3.3,1.1s1.6.9,2.2,1.7c.6.8.9,1.8.9,3.1s-.3,2-.8,2.9c-.6.9-1.4,1.7-2.4,2.2s-2.3.8-3.8.8-2.6-.2-3.7-.7h0Z"/>
    </g>
    <g>
      <g>
        <path class="st0" d="M612.3,303.2c8.5-8.8,19.4-16.3,28-21,2.4-1.3,14.8-6.4,15.1-7.2.7-1.5-1.7-1-2.4-1-20.5-1.5-42.8-9.5-49-31.2-9.8-33.8,22.4-55.2,52.8-54,5.8-26.1,30.5-40.1,51.8-19.1v22c-1.6.3-1.1-.2-1.6-.9-4-6.2-7.2-12-13.2-16.8-16.3-13.2-29-2.6-32.8,14.9,16.8,1.2,34.4,8.7,42.3,24.4,5.5,10.9,6,24.6.8,35.8-9.6,20.7-30.7,21-48.5,30.4-10.3,5.5-20.8,13.7-28.4,23.8M632,261c9.6,8.7,23.6,11,35.8,6.7,35.5-12.4,27.8-82.2-18.1-76-30.8,4.1-38.7,50.3-17.7,69.3h0Z"/>
        <path class="st0" d="M473.2,134.4v114.4l2.5-.7,49.2-47.7c-.6-2.7-11.4-4.5-9.8-8.8h30.4l1,1.7c-.4,1.6-14.5,5.6-17.1,7.3-6.1,4.1-20.4,18.7-26.2,24.8-1.1,1.2-3.5,3.1-3.3,4.8l41.2,63.5c.9,1.9,9.2,6.2,9.5,6.9.4.8,0,1.8.2,2.6h-34.9c-.8-4.1,5.3-6.5,3.7-10.3l-33.5-50.3c-.7-.1-1.3.3-1.8.6-.6.3-10,9.4-10.3,10-.3.5-.7.9-.6,1.5v39c.6,3.2,7.2,5.3,6.3,9.4h-30.7c-.7-4.6,5.8-5.9,6.3-10.1l-.4-149.7c-2.3-3-6.8-4.7-5.9-9.1h24.4Z"/>
        <path class="st0" d="M736.5,201c5.9-7.9,18-11.5,27.6-12.2,22.8-1.7,47.2,8,52,32.4v71.8c.7,4,7.6,6,7,10.1h-24.4v-13.6c0-.1-.8-1.8-1-1.7-2.4,3.5-5.2,7.2-8.6,9.7-20.9,15.4-67.5,10.5-70-20.6-3-36.7,41.3-46.7,69.5-49.2,2.1-.2,9.6.8,10-1.1-.8-5.3-.6-9.9-2.2-15.1-8.1-26.6-35.2-25.1-50.3-5.2-3.5,4.6-5.3,9.4-8,14.4-.5.9.4,1.9-1.6,1.5v-21.3h0ZM798.6,272.2v-39.1c-1.7-1.6-5.7-1.2-8.1-1.1-22.5,1.2-52.8,12.2-54.1,38.7-1.9,38.7,58.9,40.5,62.2,1.4h0Z"/>
        <path class="st0" d="M404.1,303.2c-2.3-2.5,7.7-7.1,7-10.1v-90.8c.3-4.9-7.7-6-7-10.8h24.1l1,1v101.9c0,.4,5,4.5,5.8,6.1.2.3.4.6.5,1l-1,1.6h-30.4Z"/>
        <path class="st0" d="M559.1,303.2c0-4,4.2-5.3,6.3-8,1.6-30.7.2-62,.7-92.9.3-4.9-7.7-6-7-10.8h24.1l1,1v101.9c0,.4,5,4.5,5.8,6.1.2.3.4.6.5,1l-1,1.6h-30.4,0Z"/>
        <path class="st0" d="M835.7,303.2c0-4,4.2-5.3,6.3-8,1.6-30.7.2-62,.7-92.9.3-4.9-7.7-6-7-10.8h24.1l1,1v101.9c0,.4,5,4.5,5.8,6.1.2.3.4.6.5,1l-1,1.6h-30.4,0Z"/>
        <path class="st0" d="M417.9,145.7c9.5-2,15.3,11.1,6.7,16.5-12.4,7.7-19.4-13.9-6.7-16.5Z"/>
        <path class="st0" d="M572.9,145.7c9.5-2,15.3,11.1,6.7,16.5-12.4,7.7-19.4-13.9-6.7-16.5Z"/>
        <path class="st0" d="M849.4,145.7c9.5-2,15.3,11.1,6.7,16.5-12.4,7.7-19.4-13.9-6.7-16.5Z"/>
      </g>
      <path class="st0" d="M684.8,292.4c3.7-4.4,12-13.2,17.9-7.3,4.2,4.2.6,13.1-1.8,17.5,0,.2-.2.3-.3.5h6.8c2.6-15.4-1.6-30.3-20-28-13.3,1.7-22.2,15.1-30.2,28h19.6c2.6-3.6,5.2-7.2,8.2-10.8h0Z"/>
    </g>
  </g>
</svg>
